<?xml version="1.0" standalone="no"?>
<!DOCTYPE svg PUBLIC "-//W3C//DTD SVG 20010904//EN"
 "http://www.w3.org/TR/2001/REC-SVG-20010904/DTD/svg10.dtd">
<svg version="1.0" xmlns="http://www.w3.org/2000/svg"
 width="338.000000pt" height="286.000000pt" viewBox="0 0 338.000000 286.000000"
 preserveAspectRatio="xMidYMid meet">

<g transform="translate(0.000000,286.000000) scale(0.100000,-0.100000)"
fill="#000000" stroke="none">
<path d="M384 2636 c-19 -14 -19 -37 -22 -935 l-2 -921 -78 0 c-59 0 -85 -5
-109 -20 l-33 -20 0 -253 c0 -233 1 -255 18 -270 17 -15 76 -17 640 -17 l621
0 15 22 c13 19 16 61 16 259 0 131 -3 245 -6 254 -12 29 -60 45 -139 45 l-75
0 0 515 0 515 938 0 c927 0 939 0 957 20 17 18 18 42 17 277 -1 246 -2 257
-22 277 -21 21 -23 21 -928 23 -499 1 -919 2 -934 3 l-28 0 0 94 c0 79 -3 97
-21 120 l-20 26 -393 0 c-323 0 -396 -3 -412 -14z m716 -166 l0 -60 -122 0
c-296 -1 -307 -2 -334 -33 -24 -28 -24 -29 -24 -271 0 -231 1 -245 21 -270
l20 -26 220 0 219 0 0 -515 0 -514 -301 -3 c-165 -2 -303 -1 -305 1 -2 2 -4
397 -4 878 l0 873 305 0 305 0 0 -60z m140 -197 c0 -5 -31 -47 -68 -94 -37
-48 -93 -121 -125 -163 l-58 -76 -120 0 -119 0 0 170 0 170 245 0 c135 0 245
-3 245 -7z m550 0 c0 -5 -39 -59 -85 -122 -47 -63 -99 -136 -117 -162 l-33
-48 -61 -1 c-33 0 -123 -3 -199 -7 -129 -6 -138 -5 -132 11 4 10 60 89 124
177 l117 159 193 0 c106 0 193 -3 193 -7z m560 -1 c0 -5 -34 -53 -76 -108 -42
-54 -97 -126 -123 -160 l-46 -61 -194 -7 c-106 -4 -195 -5 -198 -2 -4 3 144
212 219 309 l30 37 194 0 c107 0 194 -4 194 -8z m540 1 c0 -3 -26 -38 -57 -78
-32 -40 -87 -113 -123 -163 l-65 -91 -165 -1 c-91 0 -176 -3 -189 -7 -19 -5
-23 -3 -18 9 5 15 150 213 219 301 l30 38 184 -1 c101 -1 184 -4 184 -7z m130
-182 l0 -150 -110 -3 c-61 -2 -110 -2 -110 -1 0 1 21 31 48 66 26 35 74 102
107 150 33 48 61 87 63 87 1 0 2 -67 2 -149z m-1708 -1606 l-3 -155 -522 0
-522 0 3 155 3 155 522 0 522 0 -3 -155z"/>
</g>
</svg>
