<?xml version="1.0" standalone="no"?>
<!DOCTYPE svg PUBLIC "-//W3C//DTD SVG 20010904//EN"
 "http://www.w3.org/TR/2001/REC-SVG-20010904/DTD/svg10.dtd">
<svg version="1.0" xmlns="http://www.w3.org/2000/svg"
 width="299.000000pt" height="425.000000pt" viewBox="0 0 299.000000 425.000000"
 preserveAspectRatio="xMidYMid meet">

<g transform="translate(0.000000,425.000000) scale(0.100000,-0.100000)"
fill="#000000" stroke="none">
<path d="M2455 4019 c-28 -23 -144 -120 -260 -214 -115 -95 -266 -219 -335
-276 -69 -57 -156 -129 -195 -160 -84 -69 -225 -185 -405 -334 -73 -60 -176
-145 -229 -187 l-96 -78 -222 0 -222 0 -20 -26 c-21 -27 -21 -31 -21 -935 l0
-909 -69 0 c-84 0 -125 -13 -140 -46 -7 -16 -11 -103 -11 -250 0 -221 4 -257
34 -276 6 -4 284 -8 617 -8 507 0 608 2 625 14 18 13 19 30 22 260 l3 247 -30
29 c-28 28 -34 30 -110 30 l-81 0 0 713 0 713 29 21 c15 12 111 90 212 174
101 84 233 194 294 243 60 50 166 138 236 196 70 58 157 130 194 160 37 30
113 93 169 140 56 47 172 143 258 213 86 71 159 135 162 144 13 32 4 61 -32
109 -52 70 -155 197 -220 272 -66 77 -86 79 -157 21z m93 -151 c86 -101 162
-203 159 -212 -3 -9 -52 -52 -310 -268 l-47 -40 2 208 3 208 80 68 c44 37 81
68 83 68 2 0 15 -14 30 -32z m-328 -420 l0 -203 -135 -112 c-74 -62 -136 -113
-139 -113 -4 0 -6 91 -5 203 l0 202 137 113 c75 61 138 112 139 112 2 0 3 -91
3 -202z m-410 -342 l0 -204 -87 -73 c-49 -40 -112 -93 -140 -117 l-53 -44 0
208 1 209 136 113 c75 61 138 112 139 112 2 0 4 -92 4 -204z m-409 -342 l1
-209 -44 -37 -43 -38 -5 131 c-6 150 -6 150 -99 159 l-54 5 119 101 c65 56
120 100 121 99 2 0 3 -95 4 -211z m-221 -989 l0 -875 -217 0 c-120 0 -255 -3
-300 -7 l-83 -6 0 882 0 881 300 0 300 0 0 -875z m220 -1170 l0 -155 -520 0
-520 0 0 155 0 155 520 0 520 0 0 -155z"/>
<path d="M795 2504 c-158 -81 -159 -297 -2 -370 84 -39 160 -27 223 34 45 43
66 92 66 152 0 54 -11 86 -47 129 -56 66 -169 92 -240 55z m136 -135 c32 -32
23 -88 -18 -112 -28 -16 -36 -17 -60 -5 -15 7 -34 25 -41 40 -11 23 -10 32 2
57 9 16 21 31 28 34 29 12 69 6 89 -14z"/>
</g>
</svg>
